The Adventures of Tintin 3D (2011) 1080p AC3+DTS multi Half-SBS
.
Audio: English, Nederlands, Vlaams
Subs: Dutch Retail, English, French, portuguese, Romanian, Serbian, Turkish.
.
[IMG]http://img708.imageshack.us/img708/5302/78368538.jpg[/IMG]
.
Verenigde Staten / Nieuw-Zeeland
Animatie / Avontuur
107 minuten

geregisseerd door Steven Spielberg
met Jamie Bell, Andy Serkis en Daniel Craig

De nieuwsgierige reporter Kuifje en zijn trouwe hondje Bobbie ontdekken dat een model van het prachtige oude zeilschip 'De Eenhoorn' een geheim met zich meedraagt. Meegevoerd in een eeuwenoud mysterie, krijgt hij het aan de stok met de boosaardige Sacharin, die weet dat Kuifje een belangrijke aanwijzing bezit naar de grote schat van de snode piraat Scharlaken Rackham. Geholpen door de moedige Bobbie, de onstuimige kapitein Haddock en de stuntelige detectives Jansen en Janssen, reist Kuifje de halve wereld af, constant op de hielen gezeten door de vijand. Hij moet slimmer en sneller zijn dan de rest om het Geheim van de Eenhoorn te ontrafelen...

Momenteel te zien in 6 bioscopen

Vanaf 28 februari te huur
Vanaf 27 februari te koop op DVD en Blu-Ray
. 
http://www.moviemeter.nl/film/71340
.
PLOT
.
Intrepid reporter Tintin and Captain Haddock set off on a treasure hunt for a sunken ship commanded by Haddock's ancestor. 
. 
http://www.imdb.com/title/tt0983193/
.
INFO
.
Format                           : Matroska
Format version                   : Version 2
File size                        : 10.9 GiB
Duration                         : 1h 46mn
Overall bit rate mode            : Variable
Overall bit rate                 : 14.7 Mbps
Movie name                       : The.Adventures.of.Tintin.3D.2011.1080p.AC3.DTS.multi.Half.SBS
Encoded date                     : UTC 2012-02-23 22:56:43
Writing application              : mkvmerge v5.2.0 ('I can't explain') built on Dec 18 2011 18:12:03
Writing library                  : libebml v1.2.3 + libmatroska v1.3.0

Video
ID                               : 1
Format                           : AVC
Format/Info                      : Advanced Video Codec
Format profile                   : High@L4.1
Format settings, CABAC           : Yes
Format settings, ReFrames        : 2 frames
Codec ID                         : V_MPEG4/ISO/AVC
Duration                         : 1h 46mn
Bit rate mode                    : Variable
Bit rate                         : 10.9 Mbps
Maximum bit rate                 : 40.0 Mbps
Width                            : 1 920 pixels
Height                           : 1 080 pixels
Display aspect ratio             : 16:9
Frame rate                       : 23.976 fps
Color space                      : YUV
Chroma subsampling               : 4:2:0
Bit depth                        : 8 bits
Scan type                        : Progressive
Bits/(Pixel*Frame)               : 0.220
Stream size                      : 8.17 GiB (75%)
Title                            : The.Adventures.of.Tintin.3D.2011.1080p.AC3.DTS.multi.Half.SBS
Writing library                  : x264 core
Language                         : English
Default                          : Yes
Forced                           : No
Color primaries                  : BT.709-5, BT.1361, IEC 61966-2-4, SMPTE RP177
Transfer characteristics         : BT.709-5, BT.1361
Matrix coefficients              : BT.709-5, BT.1361, IEC 61966-2-4 709, SMPTE RP177

Audio #1
ID                               : 2
Format                           : DTS
Format/Info                      : Digital Theater Systems
Codec ID                         : A_DTS
Duration                         : 1h 46mn
Bit rate mode                    : Constant
Bit rate                         : 1 510 Kbps
Channel(s)                       : 6 channels
Channel positions                : Front: L C R, Side: L R, LFE
Sampling rate                    : 48.0 KHz
Bit depth                        : 16 bits
Compression mode                 : Lossy
Stream size                      : 1.13 GiB (10%)
Title                            : DTS
Language                         : English
Default                          : Yes
Forced                           : No

Audio #2
ID                               : 3
Format                           : AC-3
Format/Info                      : Audio Coding 3
Mode extension                   : CM (complete main)
Codec ID                         : A_AC3
Duration                         : 1h 46mn
Bit rate mode                    : Constant
Bit rate                         : 640 Kbps
Channel(s)                       : 6 channels
Channel positions                : Front: L C R, Side: L R, LFE
Sampling rate                    : 48.0 KHz
Bit depth                        : 16 bits
Compression mode                 : Lossy
Stream size                      : 489 MiB (4%)
Title                            : AC3
Language                         : English
Default                          : No
Forced                           : No

Audio #3
ID                               : 4
Format                           : AC-3
Format/Info                      : Audio Coding 3
Mode extension                   : CM (complete main)
Codec ID                         : A_AC3
Duration                         : 1h 46mn
Bit rate mode                    : Constant
Bit rate                         : 640 Kbps
Channel(s)                       : 6 channels
Channel positions                : Front: L C R, Side: L R, LFE
Sampling rate                    : 48.0 KHz
Bit depth                        : 16 bits
Compression mode                 : Lossy
Stream size                      : 489 MiB (4%)
Title                            : AC3 Dutch
Language                         : Dutch
Default                          : No
Forced                           : No

Audio #4
ID                               : 5
Format                           : AC-3
Format/Info                      : Audio Coding 3
Mode extension                   : CM (complete main)
Codec ID                         : A_AC3
Duration                         : 1h 46mn
Bit rate mode                    : Constant
Bit rate                         : 640 Kbps
Channel(s)                       : 6 channels
Channel positions                : Front: L C R, Side: L R, LFE
Sampling rate                    : 48.0 KHz
Bit depth                        : 16 bits
Compression mode                 : Lossy
Stream size                      : 489 MiB (4%)
Title                            : AC3 Vlaams
Language                         : Dutch
Default                          : No
Forced                           : No
.
Enjoy
